# xmcd CD database file
#
# Track frame offsets:
#	150
#	16557
#	38469
#	58529
#
# Disc length: 1211 seconds
#
# Revision: 0
# Processed by: cddbd v1.5.2PL0 Copyright (c) Steve Scherf et al.
# Submitted via: CDex 1.70beta2
#
DISCID=1d04b904
DTITLE=Etta James - AAA Sampler
DYEAR=1900
DGENRE=Blues
TTITLE0=Imagine
TTITLE1=It's a Man's Man's World
TTITLE2=What's Going On
TTITLE3=Strung Out
EXTD=
EXTT0=
EXTT1=
EXTT2=
EXTT3=
PLAYORDER=
